<svg width="28" height="26" viewBox="0 0 28 26" fill="none" xmlns="http://www.w3.org/2000/svg">
<path d="M5.10113 7.20225C6.26154 7.20225 7.20225 6.26154 7.20225 5.10113C7.20225 3.94071 6.26154 3 5.10113 3C3.94071 3 3 3.94071 3 5.10113C3 6.26154 3.94071 7.20225 5.10113 7.20225Z" fill="#9D735B" stroke="#9D735B" stroke-width="0.5" stroke-linecap="round" stroke-linejoin="round"/>
<path d="M26.6067 3H14.9696C14.4341 3 14 3.4341 14 3.96958V6.23267C14 6.76815 14.4341 7.20225 14.9696 7.20225H26.6067C27.1422 7.20225 27.5763 6.76815 27.5763 6.23267V3.96958C27.5763 3.4341 27.1422 3 26.6067 3Z" fill="#9D735B" stroke="#9D735B" stroke-width="0.5" stroke-linecap="round" stroke-linejoin="round"/>
<path d="M5.10113 15.2022C6.26154 15.2022 7.20225 14.2615 7.20225 13.1011C7.20225 11.9407 6.26154 11 5.10113 11C3.94071 11 3 11.9407 3 13.1011C3 14.2615 3.94071 15.2022 5.10113 15.2022Z" stroke="#9D735B" stroke-width="0.5" stroke-linecap="round" stroke-linejoin="round"/>
<path d="M26.6067 11H14.9696C14.4341 11 14 11.4341 14 11.9696V14.2327C14 14.7682 14.4341 15.2022 14.9696 15.2022H26.6067C27.1422 15.2022 27.5763 14.7682 27.5763 14.2327V11.9696C27.5763 11.4341 27.1422 11 26.6067 11Z" fill="#9D735B" stroke="#9D735B" stroke-width="0.5" stroke-linecap="round" stroke-linejoin="round"/>
<path d="M5.10113 23.2022C6.26154 23.2022 7.20225 22.2615 7.20225 21.1011C7.20225 19.9407 6.26154 19 5.10113 19C3.94071 19 3 19.9407 3 21.1011C3 22.2615 3.94071 23.2022 5.10113 23.2022Z" fill="#9D735B" stroke="#9D735B" stroke-width="0.5" stroke-linecap="round" stroke-linejoin="round"/>
<path d="M26.6067 19H14.9696C14.4341 19 14 19.4341 14 19.9696V22.2327C14 22.7682 14.4341 23.2022 14.9696 23.2022H26.6067C27.1422 23.2022 27.5763 22.7682 27.5763 22.2327V19.9696C27.5763 19.4341 27.1422 19 26.6067 19Z" fill="#9D735B" stroke="#9D735B" stroke-width="0.5" stroke-linecap="round" stroke-linejoin="round"/>
</svg>
