<svg width="29" height="28" viewBox="0 0 29 28" fill="none" xmlns="http://www.w3.org/2000/svg">
<path d="M2.73379 5.99507C2.16699 6.64677 2.16699 7.76623 2.16699 10.0025V22.3455C2.16699 23.93 2.16699 24.7223 2.57649 25.3189C2.98469 25.9154 3.69969 26.1663 5.12969 26.6669L6.81189 27.2569C7.72319 27.5762 8.42389 27.8219 9.01279 27.9795C9.39759 28.0833 9.74989 27.7785 9.74989 27.3764V7.47059C9.7454 7.31103 9.68875 7.15745 9.5888 7.03385C9.48885 6.91025 9.35122 6.82357 9.19739 6.78736C8.69169 6.65728 8.08329 6.44443 7.24999 6.15274C5.23109 5.44453 4.22099 5.09109 3.45399 5.44979C3.17947 5.5797 2.93432 5.76531 2.73379 5.99507ZM15.973 3.80608L13.9762 5.2054C13.2547 5.71126 12.7243 6.0831 12.2732 6.3472C12.1673 6.40772 12.0788 6.49501 12.0164 6.6005C11.954 6.70599 11.9197 6.82607 11.917 6.94897V26.7195C11.917 27.2056 12.4162 27.5105 12.8218 27.2477C13.2573 26.9665 13.7565 26.617 14.361 26.1939L16.3578 24.7946C17.0793 24.2887 17.6097 23.9169 18.0608 23.6528C18.1667 23.5923 18.2551 23.505 18.3176 23.3995C18.38 23.294 18.4143 23.1739 18.417 23.051V3.2792C18.417 2.79173 17.9178 2.48822 17.5122 2.74969C17.0767 3.03218 16.5775 3.38168 15.973 3.80608ZM25.203 3.33175L23.5221 2.74312C22.6108 2.42384 21.9101 2.17813 21.3212 2.02046C20.9364 1.91667 20.5841 2.22149 20.5841 2.62355V22.5294C20.5886 22.689 20.6452 22.8425 20.7452 22.9662C20.8451 23.0898 20.9828 23.1764 21.1366 23.2126C21.6423 23.3427 22.2507 23.5543 23.084 23.8473C25.1029 24.5555 26.113 24.9089 26.88 24.5502C27.1545 24.4203 27.3997 24.2347 27.6002 24.0049C28.167 23.3532 28.167 22.2338 28.167 19.9975V7.65454C28.167 6.06996 28.167 5.27635 27.7575 4.68115C27.3493 4.08463 26.6343 3.83367 25.2043 3.33307" fill="#9D735B"/>
</svg>
