<svg width="28" height="28" viewBox="0 0 28 28" fill="none" xmlns="http://www.w3.org/2000/svg">
<path d="M10.1 24.4H6.2C4.82087 24.4 3.49823 23.8522 2.52304 22.877C1.54786 21.9018 1 20.5792 1 19.2V7.50001C1 6.12088 1.54786 4.79824 2.52304 3.82305C3.49823 2.84786 4.82087 2.3 6.2 2.3H20.5C21.8791 2.3 23.2018 2.84786 24.177 3.82305C25.1521 4.79824 25.7 6.12088 25.7 7.50001V11.4M8.8 1V3.6M17.9 1V3.6M1 8.80001H25.7M22.45 18.7359L20.5 20.6859" stroke="#9D735B" stroke-width="2" stroke-linecap="round" stroke-linejoin="round"/>
<path d="M20.5 27C24.0899 27 27 24.0899 27 20.5C27 16.9102 24.0899 14 20.5 14C16.9101 14 14 16.9102 14 20.5C14 24.0899 16.9101 27 20.5 27Z" stroke="#9D735B" stroke-width="2" stroke-linecap="round" stroke-linejoin="round"/>
</svg>
